<?xml version="1.0" encoding="UTF-8" standalone="no"?><!DOCTYPE svg PUBLIC "-//W3C//DTD SVG 1.1//EN" "http://www.w3.org/Graphics/SVG/1.1/DTD/svg11.dtd"><!-- Generated by graphviz version 2.40.1 (20161225.0304)
 --><!-- Title: bintree Pages: 1 --><svg xmlns="http://www.w3.org/2000/svg" xmlns:xlink="http://www.w3.org/1999/xlink" width="354pt" height="191pt" viewBox="0.00 0.00 353.89 191.00">
<g id="graph0" class="graph" transform="scale(1 1) rotate(0) translate(4 187)">
<title>bintree</title>
<polygon fill="#ffffff" stroke="transparent" points="-4,4 -4,-187 349.8892,-187 349.8892,4 -4,4"/>
<!-- A -->
<g id="node1" class="node">
<title>A</title>
<polygon fill="none" stroke="#00ff00" points="136,-146.5 136,-182.5 208.8892,-182.5 208.8892,-146.5 136,-146.5"/>
<text text-anchor="middle" x="148.2763" y="-160.3" font-family="Times,serif" font-size="14.00" fill="#000000">L</text>
<polyline fill="none" stroke="#00ff00" points="160.5526,-146.5 160.5526,-182.5 "/>
<text text-anchor="middle" x="172.0526" y="-160.3" font-family="Times,serif" font-size="14.00" fill="#000000">1</text>
<polyline fill="none" stroke="#00ff00" points="183.5526,-146.5 183.5526,-182.5 "/>
<text text-anchor="middle" x="196.2209" y="-160.3" font-family="Times,serif" font-size="14.00" fill="#000000">R</text>
</g>
<!-- B -->
<g id="node2" class="node">
<title>B</title>
<polygon fill="none" stroke="#000000" points="67,-73.5 67,-109.5 139.8892,-109.5 139.8892,-73.5 67,-73.5"/>
<text text-anchor="middle" x="79.2763" y="-87.3" font-family="Times,serif" font-size="14.00" fill="#000000">L</text>
<polyline fill="none" stroke="#000000" points="91.5526,-73.5 91.5526,-109.5 "/>
<text text-anchor="middle" x="103.0526" y="-87.3" font-family="Times,serif" font-size="14.00" fill="#000000">2</text>
<polyline fill="none" stroke="#000000" points="114.5526,-73.5 114.5526,-109.5 "/>
<text text-anchor="middle" x="127.2209" y="-87.3" font-family="Times,serif" font-size="14.00" fill="#000000">R</text>
</g>
<!-- A&#45;&gt;B -->
<g id="edge1" class="edge">
<title>A:left-&gt;B:data</title>
<path fill="none" stroke="#000000" d="M148.4446,-146.5C148.4446,-124.8555 116.999,-131.6361 106.6809,-119.3185"/>
<polygon fill="#000000" stroke="#000000" points="103.4446,-109.5 110.8489,-117.5887 105.0099,-114.2487 106.5751,-118.9974 106.5751,-118.9974 106.5751,-118.9974 105.0099,-114.2487 102.3013,-120.4061 103.4446,-109.5 103.4446,-109.5"/>
</g>
<!-- C -->
<g id="node3" class="node">
<title>C</title>
<polygon fill="none" stroke="#000000" points="206,-73.5 206,-109.5 278.8892,-109.5 278.8892,-73.5 206,-73.5"/>
<text text-anchor="middle" x="218.2763" y="-87.3" font-family="Times,serif" font-size="14.00" fill="#000000">L</text>
<polyline fill="none" stroke="#000000" points="230.5526,-73.5 230.5526,-109.5 "/>
<text text-anchor="middle" x="242.0526" y="-87.3" font-family="Times,serif" font-size="14.00" fill="#000000">3</text>
<polyline fill="none" stroke="#000000" points="253.5526,-73.5 253.5526,-109.5 "/>
<text text-anchor="middle" x="266.2209" y="-87.3" font-family="Times,serif" font-size="14.00" fill="#000000">R</text>
</g>
<!-- A&#45;&gt;C -->
<g id="edge2" class="edge">
<title>A:right-&gt;C:data</title>
<path fill="none" stroke="#000000" d="M196.4446,-146.5C196.4446,-124.3623 229.1926,-131.9198 239.4264,-119.0619"/>
<polygon fill="#000000" stroke="#000000" points="242.4446,-109.5 243.7257,-120.3908 240.9395,-114.2681 239.4344,-119.0362 239.4344,-119.0362 239.4344,-119.0362 240.9395,-114.2681 235.1431,-117.6817 242.4446,-109.5 242.4446,-109.5"/>
</g>
<!-- D -->
<g id="node4" class="node">
<title>D</title>
<polygon fill="none" stroke="#000000" points="0,-.5 0,-36.5 72.8892,-36.5 72.8892,-.5 0,-.5"/>
<text text-anchor="middle" x="12.2763" y="-14.3" font-family="Times,serif" font-size="14.00" fill="#000000">L</text>
<polyline fill="none" stroke="#000000" points="24.5526,-.5 24.5526,-36.5 "/>
<text text-anchor="middle" x="36.0526" y="-14.3" font-family="Times,serif" font-size="14.00" fill="#000000">4</text>
<polyline fill="none" stroke="#000000" points="47.5526,-.5 47.5526,-36.5 "/>
<text text-anchor="middle" x="60.2209" y="-14.3" font-family="Times,serif" font-size="14.00" fill="#000000">R</text>
</g>
<!-- B&#45;&gt;D -->
<g id="edge3" class="edge">
<title>B:left-&gt;D:data</title>
<path fill="none" stroke="#000000" d="M79.4446,-73.5C79.4446,-52.4242 49.3966,-58.3473 39.5371,-46.1305"/>
<polygon fill="#000000" stroke="#000000" points="36.4446,-36.5 43.7865,-44.6453 37.9733,-41.2606 39.502,-46.0212 39.502,-46.0212 39.502,-46.0212 37.9733,-41.2606 35.2175,-47.397 36.4446,-36.5 36.4446,-36.5"/>
</g>
<!-- E -->
<g id="node5" class="node">
<title>E</title>
<polygon fill="none" stroke="#000000" points="91,-.5 91,-36.5 163.8892,-36.5 163.8892,-.5 91,-.5"/>
<text text-anchor="middle" x="103.2763" y="-14.3" font-family="Times,serif" font-size="14.00" fill="#000000">L</text>
<polyline fill="none" stroke="#000000" points="115.5526,-.5 115.5526,-36.5 "/>
<text text-anchor="middle" x="127.0526" y="-14.3" font-family="Times,serif" font-size="14.00" fill="#000000">5</text>
<polyline fill="none" stroke="#000000" points="138.5526,-.5 138.5526,-36.5 "/>
<text text-anchor="middle" x="151.2209" y="-14.3" font-family="Times,serif" font-size="14.00" fill="#000000">R</text>
</g>
<!-- B&#45;&gt;E -->
<g id="edge4" class="edge">
<title>B:right-&gt;E:data</title>
<path fill="none" stroke="#000000" d="M127.4446,-73.5C127.4446,-61.0382 127.4446,-55.6592 127.4446,-46.6281"/>
<polygon fill="#000000" stroke="#000000" points="127.4446,-36.5 131.9447,-46.5 127.4446,-41.5 127.4447,-46.5 127.4447,-46.5 127.4447,-46.5 127.4446,-41.5 122.9447,-46.5 127.4446,-36.5 127.4446,-36.5"/>
</g>
<!-- F -->
<g id="node6" class="node">
<title>F</title>
<polygon fill="none" stroke="#000000" points="182,-.5 182,-36.5 254.8892,-36.5 254.8892,-.5 182,-.5"/>
<text text-anchor="middle" x="194.2763" y="-14.3" font-family="Times,serif" font-size="14.00" fill="#000000">L</text>
<polyline fill="none" stroke="#000000" points="206.5526,-.5 206.5526,-36.5 "/>
<text text-anchor="middle" x="218.0526" y="-14.3" font-family="Times,serif" font-size="14.00" fill="#000000">6</text>
<polyline fill="none" stroke="#000000" points="229.5526,-.5 229.5526,-36.5 "/>
<text text-anchor="middle" x="242.2209" y="-14.3" font-family="Times,serif" font-size="14.00" fill="#000000">R</text>
</g>
<!-- C&#45;&gt;F -->
<g id="edge5" class="edge">
<title>C:left-&gt;F:data</title>
<path fill="none" stroke="#000000" d="M218.4446,-73.5C218.4446,-61.0382 218.4446,-55.6592 218.4446,-46.6281"/>
<polygon fill="#000000" stroke="#000000" points="218.4446,-36.5 222.9447,-46.5 218.4446,-41.5 218.4447,-46.5 218.4447,-46.5 218.4447,-46.5 218.4446,-41.5 213.9447,-46.5 218.4446,-36.5 218.4446,-36.5"/>
</g>
<!-- G -->
<g id="node7" class="node">
<title>G</title>
<polygon fill="none" stroke="#ff0000" points="273,-.5 273,-36.5 345.8892,-36.5 345.8892,-.5 273,-.5"/>
<text text-anchor="middle" x="285.2763" y="-14.3" font-family="Times,serif" font-size="14.00" fill="#000000">L</text>
<polyline fill="none" stroke="#ff0000" points="297.5526,-.5 297.5526,-36.5 "/>
<text text-anchor="middle" x="309.0526" y="-14.3" font-family="Times,serif" font-size="14.00" fill="#000000">7</text>
<polyline fill="none" stroke="#ff0000" points="320.5526,-.5 320.5526,-36.5 "/>
<text text-anchor="middle" x="333.2209" y="-14.3" font-family="Times,serif" font-size="14.00" fill="#000000">R</text>
</g>
<!-- C&#45;&gt;G -->
<g id="edge6" class="edge">
<title>C:right-&gt;G:data</title>
<path fill="none" stroke="#000000" d="M266.4446,-73.5C266.4446,-52.4242 296.4926,-58.3473 306.3521,-46.1305"/>
<polygon fill="#000000" stroke="#000000" points="309.4446,-36.5 310.6717,-47.397 307.9159,-41.2606 306.3872,-46.0212 306.3872,-46.0212 306.3872,-46.0212 307.9159,-41.2606 302.1027,-44.6453 309.4446,-36.5 309.4446,-36.5"/>
</g>
</g>
</svg>